<?xml version="1.0" encoding="UTF-8" standalone="no"?><!DOCTYPE svg PUBLIC "-//W3C//DTD SVG 1.1//EN" "http://www.w3.org/Graphics/SVG/1.1/DTD/svg11.dtd"><svg width="100%" height="100%" viewBox="0 0 172 35" version="1.1" xmlns="http://www.w3.org/2000/svg" xmlns:xlink="http://www.w3.org/1999/xlink" xml:space="preserve" xmlns:serif="http://www.serif.com/" style="fill-rule:evenodd;clip-rule:evenodd;stroke-linejoin:round;stroke-miterlimit:2;"><g id="Livello-1" serif:id="Livello 1"><path d="M8.36,21.644l10.36,-0l-5.026,-15.438l-5.334,15.438Zm-8.36,12.412l0,-1.077l1.385,-0.411c0.718,-0.205 1.274,-0.512 1.667,-0.923c0.392,-0.41 0.709,-0.974 0.948,-1.693l10.361,-29.952l4.257,-0l10.309,30.158c0.273,0.752 0.581,1.325 0.923,1.717c0.341,0.394 0.888,0.814 1.641,1.053l0.769,0.206l-0,0.922l-13.027,-0l0,-1.026l0.872,-0.257c0.752,-0.239 1.205,-0.615 1.359,-1.128c0.154,-0.513 0.111,-1.145 -0.128,-1.897l-2.155,-6.616l-11.334,-0l-2.205,6.513c-0.24,0.752 -0.308,1.368 -0.206,1.847c0.103,0.478 0.531,0.855 1.283,1.128l1.128,0.359l-0,1.077l-7.847,-0Z" style="fill:#fff;fill-rule:nonzero;"/><path d="M32.26,34.056l0,-0.922l0.769,-0.194c1.129,-0.355 1.693,-1.165 1.693,-2.425c-0,-1.1 0.008,-2.208 0.026,-3.324c0.016,-1.116 0.025,-2.223 0.025,-3.323l0,-18.434c0,-0.679 -0.12,-1.189 -0.359,-1.529c-0.239,-0.339 -0.701,-0.589 -1.385,-0.751l-0.769,-0.195l0,-0.921l8.975,-2.037l0.462,0.302l0,30.212c0.034,0.647 0.18,1.172 0.436,1.576c0.256,0.405 0.709,0.687 1.359,0.849l0.719,0.194l-0,0.922l-11.951,-0Z" style="fill:#fff;fill-rule:nonzero;"/><path d="M56.571,10.113c-0.992,0 -1.855,0.275 -2.59,0.822c-0.736,0.548 -1.316,1.513 -1.744,2.891c-0.428,1.379 -0.675,3.314 -0.744,5.805l9.181,0c0.376,-3.355 0.239,-5.781 -0.41,-7.275c-0.65,-1.495 -1.881,-2.243 -3.693,-2.243m0.257,-1.445c2.154,0 4,0.432 5.539,1.296c1.538,0.864 2.726,2.052 3.564,3.563c0.838,1.511 1.256,3.247 1.256,5.207c0,0.432 -0.017,0.839 -0.05,1.221c-0.035,0.382 -0.103,0.74 -0.206,1.072l-15.438,-0c0.034,3.422 0.693,5.88 1.975,7.374c1.282,1.495 3.154,2.243 5.616,2.243c1.71,-0 3.095,-0.274 4.154,-0.822c1.06,-0.548 2.034,-1.321 2.924,-2.318l0.821,0.748c-1.026,1.828 -2.42,3.248 -4.18,4.261c-1.762,1.013 -3.856,1.52 -6.283,1.52c-2.428,0 -4.565,-0.498 -6.411,-1.496c-1.846,-0.996 -3.291,-2.432 -4.334,-4.31c-1.043,-1.876 -1.565,-4.127 -1.565,-6.752c0,-2.724 0.607,-5.033 1.822,-6.927c1.213,-1.893 2.786,-3.346 4.718,-4.36c1.931,-1.013 3.957,-1.52 6.078,-1.52" style="fill:#fff;fill-rule:nonzero;"/><path d="M77.599,34.056c-2.12,-0 -3.787,-0.511 -5.001,-1.53c-1.214,-1.019 -1.82,-2.683 -1.82,-4.991c-0,-0.802 0.008,-1.562 0.025,-2.282c0.017,-0.718 0.026,-1.562 0.026,-2.532l0,-14.053l-3.642,0l0,-1.103l1.385,-0.201c0.991,-0.167 1.838,-0.468 2.539,-0.903c0.701,-0.434 1.342,-1.035 1.923,-1.805l3.334,-4.655l1.334,-0l-0,7.113l5.898,-0l-0,1.554l-5.898,0l-0,19.269c-0,1.204 0.264,2.106 0.795,2.708c0.529,0.602 1.187,0.903 1.974,0.903c0.684,-0 1.299,-0.159 1.847,-0.477c0.546,-0.317 1.094,-0.744 1.641,-1.278l0.666,0.751c-0.65,1.104 -1.556,1.966 -2.718,2.584c-1.163,0.618 -2.598,0.928 -4.308,0.928" style="fill:#fff;fill-rule:nonzero;"/><path d="M84.626,34.056l-0,-1.026l0.666,-0.205c1.231,-0.376 1.847,-1.232 1.847,-2.564l-0,-24.465c-0,-0.718 -0.121,-1.257 -0.36,-1.616c-0.239,-0.359 -0.7,-0.623 -1.384,-0.795l-0.769,-0.204l-0,-0.975l8.667,-2.205l0.615,0.345l0,11.963c1.196,-0.991 2.505,-1.846 3.925,-2.564c1.418,-0.718 2.948,-1.077 4.59,-1.077c2.257,0 4.026,0.633 5.308,1.897c1.282,1.266 1.924,3.215 1.924,5.847l-0,13.9c-0,0.684 0.136,1.231 0.409,1.641c0.273,0.41 0.752,0.718 1.437,0.923l0.461,0.154l0,1.026l-11.693,-0l0,-1.026l0.615,-0.205c1.231,-0.342 1.846,-1.197 1.846,-2.564l0,-14.823c0,-1.402 -0.239,-2.376 -0.718,-2.923c-0.478,-0.547 -1.316,-0.821 -2.513,-0.821c-0.821,0 -1.685,0.154 -2.59,0.461c-0.906,0.308 -2.01,0.821 -3.001,1.539l0,16.669c0,0.684 0.137,1.23 0.411,1.642c0.274,0.409 0.735,0.7 1.385,0.871l0.461,0.154l-0,1.026l-11.539,-0Z" style="fill:#fff;fill-rule:nonzero;"/><path d="M124.322,10.115c-0.992,-0 -1.856,0.274 -2.589,0.822c-0.736,0.549 -1.318,1.514 -1.745,2.893c-0.428,1.381 -0.675,3.317 -0.744,5.811l9.181,0c0.376,-3.358 0.239,-5.786 -0.41,-7.282c-0.65,-1.496 -1.882,-2.244 -3.693,-2.244m0.256,-1.447c2.155,0 4.002,0.432 5.539,1.297c1.54,0.865 2.727,2.054 3.565,3.566c0.838,1.514 1.257,3.251 1.257,5.213c0,0.432 -0.018,0.84 -0.052,1.221c-0.033,0.383 -0.102,0.741 -0.204,1.072l-15.439,0c0.034,3.426 0.693,5.886 1.975,7.382c1.282,1.496 3.154,2.245 5.616,2.245c1.71,-0 3.095,-0.274 4.154,-0.823c1.06,-0.549 2.035,-1.322 2.925,-2.319l0.82,0.748c-1.026,1.829 -2.419,3.251 -4.18,4.265c-1.761,1.013 -3.856,1.521 -6.284,1.521c-2.427,-0 -4.564,-0.499 -6.41,-1.497c-1.847,-0.998 -3.291,-2.435 -4.334,-4.314c-1.043,-1.878 -1.564,-4.131 -1.564,-6.758c-0,-2.727 0.606,-5.038 1.82,-6.933c1.214,-1.895 2.787,-3.35 4.719,-4.365c1.931,-1.013 3.957,-1.521 6.077,-1.521" style="fill:#fff;fill-rule:nonzero;"/><path d="M140.837,6.63c-0.986,0 -1.823,-0.313 -2.509,-0.94c-0.688,-0.628 -1.03,-1.419 -1.03,-2.374c0,-0.986 0.342,-1.784 1.03,-2.397c0.686,-0.612 1.523,-0.918 2.509,-0.918c0.986,-0 1.821,0.306 2.509,0.918c0.686,0.613 1.03,1.411 1.03,2.397c-0,0.955 -0.344,1.746 -1.03,2.374c-0.688,0.627 -1.523,0.94 -2.509,0.94m-5.898,27.426l-0,-0.974l0.769,-0.206c0.683,-0.205 1.145,-0.513 1.385,-0.923c0.239,-0.41 0.376,-0.957 0.409,-1.641l0,-12.386c0,-0.906 -0.017,-1.838 -0.05,-2.796c-0,-0.683 -0.129,-1.222 -0.385,-1.615c-0.256,-0.393 -0.726,-0.658 -1.411,-0.795l-0.717,-0.154l-0,-0.923l8.975,-2.975l0.462,0.423l-0,21.272c-0,0.684 0.128,1.231 0.384,1.642c0.257,0.409 0.709,0.717 1.36,0.923l0.564,0.154l-0,0.974l-11.745,-0Z" style="fill:#fff;fill-rule:nonzero;"/><path d="M156.634,30.864c0.683,-0 1.334,-0.15 1.949,-0.449c0.616,-0.3 1.384,-0.799 2.309,-1.497l-0,-7.98c-0.89,0.133 -1.796,0.299 -2.72,0.498c-1.47,0.334 -2.659,0.948 -3.564,1.846c-0.906,0.898 -1.359,2.112 -1.359,3.641c-0,1.33 0.315,2.319 0.949,2.968c0.632,0.648 1.444,0.973 2.436,0.973m-2.974,3.192c-1.95,-0 -3.599,-0.541 -4.951,-1.622c-1.351,-1.079 -2.025,-2.635 -2.025,-4.664c0,-1.595 0.795,-3.066 2.385,-4.414c1.59,-1.346 4.094,-2.335 7.513,-2.967c0.582,-0.132 1.257,-0.257 2.027,-0.374c0.769,-0.116 1.529,-0.241 2.283,-0.374l-0,-3.542c-0,-2.26 -0.292,-3.823 -0.873,-4.688c-0.581,-0.864 -1.505,-1.297 -2.77,-1.297l-0.153,0c-0.788,0 -1.411,0.242 -1.873,0.724c-0.461,0.482 -0.76,1.272 -0.898,2.369l-0.153,0.648c-0.103,1.33 -0.461,2.303 -1.076,2.918c-0.617,0.616 -1.386,0.923 -2.309,0.923c-0.855,-0 -1.564,-0.257 -2.128,-0.773c-0.564,-0.515 -0.847,-1.188 -0.847,-2.02c0,-1.363 0.479,-2.511 1.437,-3.442c0.957,-0.93 2.231,-1.628 3.821,-2.095c1.59,-0.465 3.308,-0.698 5.154,-0.698c3.042,0 5.367,0.715 6.975,2.145c1.607,1.43 2.411,3.758 2.411,6.983l-0,11.122c-0,1.431 0.7,2.145 2.103,2.145l1.179,-0l0.513,0.549c-0.615,0.765 -1.3,1.355 -2.052,1.77c-0.752,0.416 -1.778,0.624 -3.077,0.624c-1.47,-0 -2.641,-0.342 -3.512,-1.023c-0.873,-0.681 -1.445,-1.587 -1.719,-2.718c-1.095,1.131 -2.172,2.045 -3.232,2.744c-1.06,0.697 -2.445,1.047 -4.153,1.047" style="fill:#fff;fill-rule:nonzero;"/></g></svg>