<?xml version="1.0" encoding="UTF-8" standalone="no"?><!DOCTYPE svg PUBLIC "-//W3C//DTD SVG 1.1//EN" "http://www.w3.org/Graphics/SVG/1.1/DTD/svg11.dtd"><svg width="100%" height="100%" viewBox="0 0 100 35" version="1.1" xmlns="http://www.w3.org/2000/svg" xmlns:xlink="http://www.w3.org/1999/xlink" xml:space="preserve" xmlns:serif="http://www.serif.com/" style="fill-rule:evenodd;clip-rule:evenodd;stroke-linejoin:round;stroke-miterlimit:2;"><g><path d="M96.815,17.028c0,9.404 -7.624,17.028 -17.028,17.028c-9.404,-0 -17.028,-7.624 -17.028,-17.028c-0,-9.404 7.624,-17.028 17.028,-17.028c9.404,0 17.028,7.624 17.028,17.028" style="fill:#fff;fill-rule:nonzero;"/><path d="M23.843,18.741l-0,-0.707l-2.553,0c-1.63,0 -2.445,0.508 -2.445,1.521c0,0.526 0.195,0.929 0.584,1.209c0.389,0.281 0.946,0.421 1.67,0.421c0.725,0 1.363,-0.221 1.916,-0.665c0.552,-0.444 0.828,-1.037 0.828,-1.779m4.101,5.785l-3.829,-0l-0,-1.983c-1.051,1.322 -2.35,1.983 -3.898,1.983c-1.548,-0 -2.848,-0.448 -3.898,-1.344c-1.05,-0.897 -1.575,-2.092 -1.575,-3.586c0,-1.494 0.543,-2.612 1.629,-3.354c1.087,-0.743 2.571,-1.114 4.455,-1.114l3.042,0l0,-0.081c0,-1.558 -0.824,-1.8 -2.472,-1.8c-0.706,-0 -1.453,0.14 -2.241,0.421c-0.787,0.281 -1.452,0.629 -1.996,1.045l-1.82,-2.634c1.92,-1.394 4.111,-2.092 6.574,-2.092c1.774,0 3.222,0.444 4.345,1.331c1.123,0.888 1.684,2.291 1.684,4.21l0,8.998Z" style="fill:#fff;fill-rule:nonzero;"/><path d="M35.794,21.042c1.358,-0 2.58,-0.655 3.667,-1.965l2.417,2.62c-1.883,1.886 -3.92,2.829 -6.111,2.829c-2.191,-0 -4.043,-0.668 -5.555,-2.004c-1.512,-1.336 -2.268,-3.082 -2.268,-5.239c0,-2.157 0.765,-3.912 2.295,-5.265c1.53,-1.354 3.508,-2.031 5.609,-2.031c1.05,0 2.114,0.21 3.192,0.629c1.077,0.419 2.024,1.039 2.838,1.86l-2.118,2.672c-0.471,-0.541 -1.046,-0.96 -1.725,-1.257c-0.679,-0.297 -1.354,-0.446 -2.024,-0.446c-1.068,-0 -2.15,0.337 -2.919,1.009c-0.771,0.672 -1.155,1.607 -1.155,2.802c-0,1.197 0.384,2.127 1.155,2.791c0.769,0.664 1.67,0.995 2.702,0.995" style="fill:#fff;fill-rule:nonzero;"/><path d="M45.952,24.526l-4.074,0l0,-19.733l4.074,-0l0,10.246l4.746,-5.052l5.134,0l-5.778,6.139l5.778,8.4l-4.835,0l-3.714,-5.277l-1.331,1.386l0,3.891Z" style="fill:#fff;fill-rule:nonzero;"/><path d="M4.009,17.036c0,1.183 0.329,2.149 0.988,2.899c0.66,0.749 1.459,1.124 2.398,1.124c0.939,-0 1.761,-0.375 2.465,-1.124c0.704,-0.75 1.056,-1.711 1.056,-2.885c0,-1.174 -0.343,-2.158 -1.029,-2.953c-0.687,-0.794 -1.508,-1.191 -2.465,-1.191c-0.957,-0 -1.765,0.392 -2.425,1.178c-0.659,0.785 -0.988,1.77 -0.988,2.952m4.388,-7.049c1.77,0 3.314,0.691 4.632,2.072c1.318,1.382 1.978,2.661 1.978,4.829c-0,2.166 -0.678,3.981 -2.032,5.444c-1.355,1.463 -2.894,2.194 -4.619,2.194c-1.724,0 -3.155,-0.713 -4.293,-2.14l0,2.14l-4.063,0l-0,-19.733l4.063,0l0,7.063c1.12,-1.246 2.564,-1.869 4.334,-1.869" style="fill:#fff;fill-rule:nonzero;"/><path d="M75.005,16.698l0,7.885l-4.101,-0l-0,-7.994c-0,-1.16 -0.177,-2.012 -0.53,-2.556c-0.353,-0.543 -0.923,-0.815 -1.711,-0.815c-0.788,-0 -1.485,0.295 -2.091,0.884c-0.607,0.589 -0.91,1.454 -0.91,2.596l-0,7.885l-4.075,-0l0,-14.628l4.075,0l-0,1.659c1.122,-1.269 2.408,-1.903 3.857,-1.903c0.923,-0 1.76,0.271 2.512,0.815c0.751,0.544 1.317,1.206 1.698,1.985c0.561,-0.888 1.317,-1.577 2.268,-2.066c0.95,-0.49 1.905,-0.734 2.865,-0.734c1.721,-0 3.105,0.512 4.156,1.536c1.05,1.024 1.575,2.506 1.575,4.445l0,8.891l-4.101,-0l0,-7.994c0,-2.247 -0.824,-3.371 -2.472,-3.371c-0.815,-0 -1.521,0.295 -2.118,0.884c-0.598,0.589 -0.897,1.454 -0.897,2.596" style="fill:#c5243e;fill-rule:nonzero;"/><path d="M94.057,13.931c-0.561,-0.455 -1.245,-0.683 -2.051,-0.683c-0.806,-0 -1.544,0.236 -2.213,0.71c-0.67,0.473 -1.06,1.113 -1.168,1.92l6.41,-0c-0.091,-0.842 -0.417,-1.49 -0.978,-1.947m3.911,8.39c-1.648,1.508 -3.581,2.261 -5.799,2.261c-2.218,0 -4.051,-0.661 -5.5,-1.985c-1.449,-1.324 -2.173,-3.099 -2.173,-5.326c0,-2.226 0.738,-3.997 2.214,-5.312c1.475,-1.315 3.219,-1.972 5.229,-1.972c2.009,-0 3.716,0.587 5.119,1.762c1.403,1.175 2.105,2.787 2.105,4.838l0,2.104l-10.647,0c0.126,0.772 0.544,1.403 1.25,1.894c0.706,0.491 1.502,0.736 2.39,0.736c1.43,0 2.607,-0.464 3.531,-1.393l2.281,2.393Z" style="fill:#c5243e;fill-rule:nonzero;"/><path d="M63.772,17.168l-7.457,7.461l-0,-14.918l7.457,7.457Z" style="fill:#fff;fill-rule:nonzero;"/></g></svg>