<?xml version="1.0" encoding="UTF-8" standalone="no"?><!DOCTYPE svg PUBLIC "-//W3C//DTD SVG 1.1//EN" "http://www.w3.org/Graphics/SVG/1.1/DTD/svg11.dtd"><svg width="100%" height="100%" viewBox="0 0 557 366" version="1.1" xmlns="http://www.w3.org/2000/svg" xmlns:xlink="http://www.w3.org/1999/xlink" xml:space="preserve" xmlns:serif="http://www.serif.com/" style="fill-rule:evenodd;clip-rule:evenodd;stroke-linejoin:round;stroke-miterlimit:2;"><g><g id="Illustration"><g opacity="0.16"><path d="M142.548,348.174c-0,-0 -49.431,-6.578 -72.903,-1.442c-23.471,5.137 -81.612,-22.727 -62.343,-66.461c19.27,-43.734 41.087,-70.836 15.879,-94.75c-25.208,-23.915 -33.135,-69.459 -7.144,-95.054c25.991,-25.595 33.814,0.74 54.521,-8.687c20.707,-9.426 -5.587,-58.595 52.91,-72.49c58.497,-13.896 102.18,20.929 128.778,16.187c26.597,-4.743 69.263,-26.651 97.966,-25.428c28.702,1.224 25.142,44.018 63.229,41.524c38.087,-2.495 67.985,-6.805 92.658,29.625c24.673,36.429 18.74,82.634 -4.784,100.894c-23.523,18.259 -18.933,42.815 24.439,44.223c43.372,1.408 38.486,52.339 3.094,89.938c-35.392,37.599 -65.754,38.016 -101.106,40.479c-35.352,2.464 -285.194,1.442 -285.194,1.442" style="fill:#c5243e;fill-rule:nonzero;"/></g><path d="M147.051,348.555l-123.36,0c-3.933,0 -7.122,-3.189 -7.122,-7.122l-0,-184.765c-0,-3.926 3.177,-7.112 7.103,-7.122l124.346,-0.334c3.956,-0.011 7.163,3.205 7.142,7.161l-0.986,185.098c-0.021,3.918 -3.204,7.084 -7.123,7.084" style="fill:#ccc;fill-rule:nonzero;"/><path d="M141.006,158.329l-110.303,0.679c-3.987,0.024 -7.201,3.273 -7.183,7.261l0.77,165.832c0.018,3.927 3.169,7.121 7.095,7.192l107.173,1.956c4.003,0.073 7.303,-3.122 7.359,-7.125l2.36,-168.467c0.057,-4.048 -3.222,-7.353 -7.271,-7.328" style="fill:#f2f2f2;fill-rule:nonzero;"/><g opacity="0.52"><path d="M136.521,167.619l0,0.761c0,1.194 -0.968,2.162 -2.162,2.162l-84.988,-0c-1.194,-0 -2.162,-0.968 -2.162,-2.162l-0,-0.761c-0,-1.193 0.968,-2.162 2.162,-2.162l84.988,0c1.194,0 2.162,0.969 2.162,2.162" style="fill:#b3b3b3;fill-rule:nonzero;"/></g><g opacity="0.52"><path d="M127.039,177.185c-0.062,1.131 -0.987,2.023 -2.12,2.044l-74.326,1.355c-1.21,0.022 -2.202,-0.952 -2.202,-2.162l0,-0.176c0,-1.181 0.947,-2.144 2.128,-2.162l74.326,-1.178c1.254,-0.02 2.261,1.027 2.194,2.279" style="fill:#b3b3b3;fill-rule:nonzero;"/></g><g opacity="0.52"><path d="M33.831,188.878c-0.791,0.761 -1.239,1.785 -1.259,2.883l-2.587,136.378c-0.021,1.103 0.391,2.147 1.159,2.939c0.767,0.792 1.798,1.235 2.901,1.249l100.53,1.206c2.257,0.048 4.119,-1.784 4.159,-4.037l2.412,-135.63l0,-0.001c0.041,-2.261 -1.767,-4.138 -4.03,-4.182l-100.355,-1.953c-0.027,-0.001 -0.054,-0.001 -0.081,-0.001c-1.068,-0 -2.077,0.406 -2.849,1.149m100.72,146.705l-100.53,-1.207c-1.654,-0.02 -3.198,-0.684 -4.349,-1.871c-1.151,-1.187 -1.767,-2.752 -1.736,-4.405l2.586,-136.378c0.031,-1.645 0.702,-3.18 1.888,-4.322c1.185,-1.141 2.726,-1.741 4.391,-1.72l100.355,1.954c3.391,0.066 6.1,2.878 6.04,6.268l-0,-0l-2.412,135.63c-0.06,3.352 -2.815,6.051 -6.159,6.051c-0.025,0 -0.05,-0 -0.074,-0" style="fill:#b3b3b3;fill-rule:nonzero;"/></g><g opacity="0.52"><path d="M31.383,201.375l109.486,0c0.566,0 1.025,-0.459 1.025,-1.025c-0,-0.566 -0.459,-1.025 -1.025,-1.025l-109.486,0c-0.565,0 -1.024,0.459 -1.024,1.025c-0,0.566 0.459,1.025 1.024,1.025" style="fill:#b3b3b3;fill-rule:nonzero;"/></g><path d="M275.061,274.053l-7.456,66.87l86.505,0l-11.267,-66.87l-67.782,-0Z" style="fill:#b7b7b7;fill-rule:nonzero;"/><path d="M93.604,76.158l-0,183.957c-0,15.133 12.059,27.508 27.187,27.898c67.19,1.732 302.188,5.934 366.149,4.991c10.993,-0.162 19.898,-8.96 20.215,-19.949c1.234,-42.736 3.237,-145.501 -4.176,-193.211c-1.561,-10.047 -10.042,-17.56 -20.204,-17.885c-56.297,-1.801 -305.411,-7.52 -369.342,-6.084c-11.025,0.247 -19.829,9.254 -19.829,20.283" style="fill:#ccc;fill-rule:nonzero;"/><path d="M105.146,75.262l0,174.772c0,8.836 7.093,16.035 15.927,16.167l356.665,4.406c8.759,0.131 15.938,-6.916 15.971,-15.675l0.597,-173.211c0.023,-6.263 -4.967,-11.395 -11.229,-11.547l-365.158,-7.377c-7.004,-0.17 -12.773,5.46 -12.773,12.465" style="fill:#fff;fill-rule:nonzero;"/><path d="M115.264,80.809l-0,164.038c-0,8.293 6.753,15.05 15.165,15.174l339.603,4.136c8.34,0.123 15.175,-6.491 15.207,-14.713l0.568,-162.573c0.022,-5.878 -4.729,-10.695 -10.691,-10.838l-347.691,-6.924c-6.668,-0.16 -12.161,5.125 -12.161,11.7" style="fill:#fff;fill-rule:nonzero;"/><path d="M496.394,277.822l-0.009,0l-391.248,-6.666c-0.302,-0.005 -0.542,-0.254 -0.538,-0.556c0.006,-0.302 0.272,-0.557 0.556,-0.538l391.248,6.667c0.302,0.005 0.542,0.254 0.538,0.556c-0.006,0.299 -0.249,0.537 -0.547,0.537" style="fill:#313131;fill-rule:nonzero;"/><path d="M304.63,277.822c-1.943,0 -3.524,1.581 -3.524,3.524c-0,1.944 1.581,3.524 3.524,3.524c1.943,0 3.524,-1.58 3.524,-3.524c-0,-1.943 -1.581,-3.524 -3.524,-3.524m-0,8.142c-2.546,0 -4.618,-2.072 -4.618,-4.618c-0,-2.545 2.072,-4.617 4.618,-4.617c2.546,-0 4.617,2.072 4.617,4.617c0,2.546 -2.071,4.618 -4.617,4.618" style="fill:#313131;fill-rule:nonzero;"/><path d="M372.744,354.605l-126.607,0c-3.439,0 -6.022,-2.449 -5.357,-5.078l1.624,-6.426c0.489,-1.932 2.615,-3.35 5.139,-3.429l122.054,-3.808c2.637,-0.083 4.973,1.317 5.548,3.325l2.928,10.234c0.761,2.658 -1.834,5.182 -5.329,5.182" style="fill:#b7b7b7;fill-rule:nonzero;"/><path d="M314.292,341.547c-0.298,-0 -0.543,-0.24 -0.547,-0.539c-0.004,-0.303 0.237,-0.551 0.539,-0.555l5.23,-0.077c0.288,0.008 0.551,0.237 0.555,0.539c0.004,0.302 -0.237,0.551 -0.539,0.555l-5.23,0.077l-0.008,-0Z" style="fill:#313131;fill-rule:nonzero;"/><path d="M245.467,351.197c-0.028,0 -0.057,-0.002 -0.086,-0.007c-0.299,-0.047 -0.502,-0.328 -0.454,-0.626l0.746,-4.673c0.411,-2.575 2.602,-4.473 5.21,-4.511l55.474,-0.811c0.311,-0.004 0.551,0.237 0.555,0.539c0.004,0.301 -0.237,0.55 -0.539,0.554l-55.473,0.812c-2.076,0.03 -3.82,1.54 -4.147,3.59l-0.746,4.672c-0.043,0.269 -0.275,0.461 -0.54,0.461" style="fill:#313131;fill-rule:nonzero;"/><g opacity="0.52"><path d="M275.866,133.262l-80.964,0.219c-3.118,0.008 -5.576,0.467 -5.423,1.013l1.348,4.821c0.144,0.515 2.567,0.919 5.508,0.919l79.616,-0c3.046,-0 5.515,-0.432 5.515,-0.966l0,-5.04c0,-0.54 -2.521,-0.974 -5.6,-0.966" style="fill:#b3b3b3;fill-rule:nonzero;"/></g><g opacity="0.52"><path d="M375.831,131.921l-80.963,0.267c-3.119,0.011 -5.577,0.573 -5.424,1.24l1.348,5.9c0.144,0.629 2.568,1.123 5.509,1.123l79.615,0c3.047,0 5.516,-0.529 5.516,-1.181l-0,-6.168c-0,-0.66 -2.522,-1.192 -5.601,-1.181" style="fill:#b3b3b3;fill-rule:nonzero;"/></g><g opacity="0.52"><path d="M319.581,119.236l-125.022,0c-1.942,0 -3.516,0.337 -3.516,0.752l-0,7.304c-0,0.415 1.574,0.751 3.516,0.751l125.022,0c1.942,0 3.516,-0.336 3.516,-0.751l-0,-7.304c-0,-0.415 -1.574,-0.752 -3.516,-0.752" style="fill:#b3b3b3;fill-rule:nonzero;"/></g><g opacity="0.52"><path d="M393.099,119.647l-50.013,0c-0.146,0 -0.294,0.001 -0.436,0.01c-4.18,0.249 -5.588,-0.548 -7.213,0.662c-0.066,0.049 0.084,0.1 0.084,0.151l0,7.233c0,0.415 3.29,0.751 7.348,0.751l50.23,0c4.058,0 7.348,-0.336 7.348,-0.751l-0,-7.305c-0,-0.414 -3.29,-0.751 -7.348,-0.751" style="fill:#b3b3b3;fill-rule:nonzero;"/></g><g opacity="0.52"><path d="M275.866,217.117l-80.964,0.219c-3.118,0.009 -5.576,0.468 -5.423,1.013l1.348,4.822c0.144,0.514 2.567,0.918 5.508,0.918l79.616,0c3.046,0 5.515,-0.432 5.515,-0.965l0,-5.041c0,-0.539 -2.521,-0.974 -5.6,-0.966" style="fill:#b3b3b3;fill-rule:nonzero;"/></g><g opacity="0.52"><path d="M375.831,215.776l-80.963,0.268c-3.119,0.01 -5.577,0.572 -5.424,1.24l1.348,5.899c0.144,0.629 2.568,1.124 5.509,1.124l79.615,0c3.047,0 5.516,-0.529 5.516,-1.181l-0,-6.168c-0,-0.66 -2.522,-1.192 -5.601,-1.182" style="fill:#b3b3b3;fill-rule:nonzero;"/></g><g opacity="0.52"><path d="M319.581,203.092l-125.022,-0c-1.942,-0 -3.516,0.336 -3.516,0.751l-0,7.305c-0,0.415 1.574,0.751 3.516,0.751l125.022,0c1.942,0 3.516,-0.336 3.516,-0.751l-0,-7.305c-0,-0.415 -1.574,-0.751 -3.516,-0.751" style="fill:#b3b3b3;fill-rule:nonzero;"/></g><g opacity="0.52"><path d="M393.099,203.503l-50.013,-0c-0.146,-0 -0.294,0.001 -0.436,0.009c-4.18,0.249 -5.588,-0.547 -7.213,0.663c-0.066,0.048 0.084,0.1 0.084,0.15l0,7.234c0,0.414 3.29,0.751 7.348,0.751l50.23,-0c4.058,-0 7.348,-0.337 7.348,-0.751l-0,-7.305c-0,-0.415 -3.29,-0.751 -7.348,-0.751" style="fill:#b3b3b3;fill-rule:nonzero;"/></g><g opacity="0.52"><path d="M275.866,162.339l-80.964,0.219c-3.118,0.008 -5.576,0.467 -5.423,1.013l1.348,4.821c0.144,0.515 2.567,0.919 5.508,0.919l79.616,-0c3.046,-0 5.515,-0.433 5.515,-0.966l0,-5.041c0,-0.539 -2.521,-0.974 -5.6,-0.965" style="fill:#b3b3b3;fill-rule:nonzero;"/></g><g opacity="0.52"><path d="M403.685,160.997l-107.067,0.268c-4.123,0.011 -7.374,0.572 -7.172,1.24l1.783,5.899c0.19,0.63 3.395,1.124 7.285,1.124l105.284,0c4.028,0 7.293,-0.529 7.293,-1.181l-0,-6.168c-0,-0.66 -3.334,-1.192 -7.406,-1.182" style="fill:#b3b3b3;fill-rule:nonzero;"/></g><g opacity="0.52"><path d="M319.581,148.313l-125.022,0c-1.942,0 -3.516,0.337 -3.516,0.752l-0,7.304c-0,0.415 1.574,0.751 3.516,0.751l125.022,0c1.942,0 3.516,-0.336 3.516,-0.751l-0,-7.304c-0,-0.415 -1.574,-0.752 -3.516,-0.752" style="fill:#b3b3b3;fill-rule:nonzero;"/></g><g opacity="0.52"><path d="M393.099,148.724l-50.013,-0c-0.146,-0 -0.294,0.001 -0.436,0.01c-4.18,0.249 -5.588,-0.548 -7.213,0.662c-0.066,0.049 0.084,0.1 0.084,0.151l0,7.233c0,0.415 3.29,0.751 7.348,0.751l50.23,0c4.058,0 7.348,-0.336 7.348,-0.751l-0,-7.305c-0,-0.415 -3.29,-0.751 -7.348,-0.751" style="fill:#b3b3b3;fill-rule:nonzero;"/></g><g opacity="0.52"><path d="M275.866,244.636l-80.964,0.22c-3.118,0.008 -5.576,0.467 -5.423,1.012l1.348,4.822c0.144,0.514 2.567,0.918 5.508,0.918l79.616,0c3.046,0 5.515,-0.432 5.515,-0.965l0,-5.041c0,-0.539 -2.521,-0.974 -5.6,-0.966" style="fill:#b3b3b3;fill-rule:nonzero;"/></g><g opacity="0.52"><path d="M403.685,243.295l-107.067,0.268c-4.123,0.011 -7.374,0.572 -7.172,1.24l1.783,5.899c0.19,0.63 3.395,1.124 7.285,1.124l105.284,0c4.028,0 7.293,-0.529 7.293,-1.181l-0,-6.168c-0,-0.66 -3.334,-1.192 -7.406,-1.182" style="fill:#b3b3b3;fill-rule:nonzero;"/></g><g opacity="0.52"><path d="M319.581,230.611l-125.022,0c-1.942,0 -3.516,0.337 -3.516,0.751l-0,7.305c-0,0.415 1.574,0.751 3.516,0.751l125.022,0c1.942,0 3.516,-0.336 3.516,-0.751l-0,-7.305c-0,-0.414 -1.574,-0.751 -3.516,-0.751" style="fill:#b3b3b3;fill-rule:nonzero;"/></g><g opacity="0.52"><path d="M393.099,231.022l-50.013,-0c-0.146,-0 -0.294,0.001 -0.436,0.009c-4.18,0.249 -5.588,-0.547 -7.213,0.663c-0.066,0.049 0.084,0.1 0.084,0.151l0,7.233c0,0.415 3.29,0.751 7.348,0.751l50.23,0c4.058,0 7.348,-0.336 7.348,-0.751l-0,-7.305c-0,-0.415 -3.29,-0.751 -7.348,-0.751" style="fill:#b3b3b3;fill-rule:nonzero;"/></g><g opacity="0.52"><path d="M275.866,190.637l-80.964,0.219c-3.118,0.008 -5.576,0.467 -5.423,1.012l1.348,4.822c0.144,0.515 2.567,0.919 5.508,0.919l79.616,-0c3.046,-0 5.515,-0.433 5.515,-0.966l0,-5.041c0,-0.539 -2.521,-0.974 -5.6,-0.965" style="fill:#b3b3b3;fill-rule:nonzero;"/></g><g opacity="0.52"><path d="M375.831,189.295l-80.963,0.268c-3.119,0.011 -5.577,0.572 -5.424,1.24l1.348,5.899c0.144,0.63 2.568,1.124 5.509,1.124l79.615,0c3.047,0 5.516,-0.529 5.516,-1.181l-0,-6.168c-0,-0.66 -2.522,-1.192 -5.601,-1.182" style="fill:#b3b3b3;fill-rule:nonzero;"/></g><g opacity="0.52"><path d="M286.715,176.611l-93.055,0c-1.446,0 -2.617,0.337 -2.617,0.752l-0,7.304c-0,0.415 1.171,0.751 2.617,0.751l93.055,0c1.445,0 2.617,-0.336 2.617,-0.751l-0,-7.304c-0,-0.415 -1.172,-0.752 -2.617,-0.752" style="fill:#b3b3b3;fill-rule:nonzero;"/></g><g opacity="0.52"><path d="M402.518,177.022l-84.861,-0c-0.248,-0 -0.5,0.001 -0.74,0.01c-7.093,0.249 -9.482,-0.548 -12.24,0.662c-0.111,0.049 0.144,0.1 0.144,0.151l-0,7.233c-0,0.415 5.581,0.751 12.467,0.751l85.23,0c6.885,0 12.467,-0.336 12.467,-0.751l0,-7.305c0,-0.415 -5.582,-0.751 -12.467,-0.751" style="fill:#b3b3b3;fill-rule:nonzero;"/></g><path d="M331.997,80.588c-19.778,-0.531 -117.611,-3.649 -137.69,-4.29c-1.981,-0.063 -3.605,2.843 -3.605,6.451l-0,16.672c-0,3.562 1.586,6.451 3.544,6.451l137.697,-0c1.957,-0 3.544,-2.889 3.544,-6.451l-0,-12.383c-0,-3.526 -1.554,-6.399 -3.49,-6.45" style="fill:#c5243e;fill-rule:nonzero;"/><path d="M67.904,347.649l123.36,0c3.934,0 7.123,-2.356 7.123,-5.262l-0,-87.995c-0,-2.901 -3.178,-5.254 -7.104,-5.262l-124.346,-0.247c-3.956,-0.008 -7.163,2.368 -7.142,5.29l0.987,88.242c0.021,2.895 3.203,5.234 7.122,5.234" style="fill:#ccc;fill-rule:nonzero;"/><path d="M73.949,255.618l110.304,0.502c3.987,0.018 7.201,2.419 7.182,5.364l-0.769,74.009c-0.019,2.901 -3.169,5.261 -7.096,5.314l-107.173,1.444c-4.003,0.054 -7.302,-2.306 -7.359,-5.263l-2.36,-75.956c-0.057,-2.99 3.223,-5.432 7.271,-5.414" style="fill:#f2f2f2;fill-rule:nonzero;"/><g opacity="0.52"><path d="M78.434,262.482l0,0.562c0,0.882 0.968,1.597 2.162,1.597l84.988,0c1.194,0 2.163,-0.715 2.163,-1.597l-0,-0.562c-0,-0.882 -0.969,-1.597 -2.163,-1.597l-84.988,0c-1.194,0 -2.162,0.715 -2.162,1.597" style="fill:#b3b3b3;fill-rule:nonzero;"/></g><g opacity="0.52"><path d="M87.917,269.549c0.061,0.836 0.986,1.495 2.119,1.51l74.327,1.001c1.209,0.016 2.201,-0.703 2.201,-1.597l0,-0.13c0,-0.873 -0.947,-1.584 -2.128,-1.598l-74.326,-0.87c-1.254,-0.015 -2.261,0.759 -2.193,1.684" style="fill:#b3b3b3;fill-rule:nonzero;"/></g><g opacity="0.52"><path d="M78.434,294.934l0,0.562c0,0.882 0.968,1.597 2.162,1.597l84.988,-0c1.194,-0 2.163,-0.715 2.163,-1.597l-0,-0.562c-0,-0.882 -0.969,-1.597 -2.163,-1.597l-84.988,-0c-1.194,-0 -2.162,0.715 -2.162,1.597" style="fill:#b3b3b3;fill-rule:nonzero;"/></g><g opacity="0.52"><path d="M78.953,307.136l0,0.562c0,0.882 0.968,1.597 2.162,1.597l84.988,-0c1.195,-0 2.163,-0.715 2.163,-1.597l-0,-0.562c-0,-0.882 -0.968,-1.597 -2.163,-1.597l-84.988,-0c-1.194,-0 -2.162,0.715 -2.162,1.597" style="fill:#b3b3b3;fill-rule:nonzero;"/></g><g opacity="0.52"><path d="M78.953,313.107l0,0.562c0,0.882 1.031,1.597 2.303,1.597l90.504,0c1.272,0 2.303,-0.715 2.303,-1.597l-0,-0.562c-0,-0.882 -1.031,-1.597 -2.303,-1.597l-90.504,-0c-1.272,-0 -2.303,0.715 -2.303,1.597" style="fill:#b3b3b3;fill-rule:nonzero;"/></g><g opacity="0.52"><path d="M78.953,318.559l0,0.562c0,0.882 0.995,1.597 2.221,1.597l87.293,-0c1.227,-0 2.221,-0.715 2.221,-1.597l-0,-0.562c-0,-0.882 -0.994,-1.597 -2.221,-1.597l-87.293,-0c-1.226,-0 -2.221,0.715 -2.221,1.597" style="fill:#b3b3b3;fill-rule:nonzero;"/></g><g opacity="0.52"><path d="M78.311,302c0.061,0.837 0.986,1.496 2.119,1.511l74.327,1.001c1.209,0.016 2.201,-0.704 2.201,-1.597l0,-0.131c0,-0.872 -0.947,-1.583 -2.127,-1.597l-74.327,-0.87c-1.253,-0.015 -2.261,0.759 -2.193,1.683" style="fill:#b3b3b3;fill-rule:nonzero;"/></g><g opacity="0.52"><path d="M79.869,324.587c0.061,0.836 0.986,1.495 2.119,1.51l74.326,1.001c1.21,0.017 2.202,-0.703 2.202,-1.597l0,-0.13c0,-0.873 -0.947,-1.583 -2.128,-1.597l-74.326,-0.87c-1.254,-0.015 -2.261,0.758 -2.193,1.683" style="fill:#b3b3b3;fill-rule:nonzero;"/></g><g opacity="0.52"><path d="M72.779,281.886l0.005,-0l-0.005,-0Zm105.41,-4.279l-100.355,1.443c-1.353,0.019 -2.61,0.499 -3.365,1.283c-0.309,0.32 -0.673,0.844 -0.661,1.518l2.413,51.706c0.036,1.486 1.912,2.727 4.11,2.727c0.017,-0 0.035,-0.001 0.052,-0.001l100.531,-0.891c1.362,-0.012 2.63,-0.49 3.392,-1.279c0.313,-0.324 0.682,-0.853 0.666,-1.511l-2.588,-52.273c-0.038,-1.488 -1.911,-2.722 -4.11,-2.722c-0.028,-0 -0.057,-0 -0.085,0m-104.017,56.023l-2.412,-51.697c0,-0.007 -0,-0.015 -0,-0.023c-0.026,-1.081 0.412,-2.145 1.232,-2.998c1.143,-1.187 2.896,-1.884 4.812,-1.912l100.355,-1.443c0.039,-0 0.077,-0 0.116,-0c3.339,-0 6.09,2.098 6.156,4.696l2.589,52.272c0.028,1.086 -0.412,2.156 -1.239,3.012c-1.153,1.194 -2.921,1.888 -4.849,1.905l-100.531,0.891c-0.025,0 -0.049,0.001 -0.074,0.001c-3.394,-0 -6.092,-2.066 -6.155,-4.704" style="fill:#b3b3b3;fill-rule:nonzero;"/></g><g opacity="0.52"><path d="M74.087,287.688l109.485,-0c0.566,-0 1.025,-0.459 1.025,-1.025c-0,-0.566 -0.459,-1.025 -1.025,-1.025l-109.485,-0c-0.566,-0 -1.025,0.459 -1.025,1.025c-0,0.566 0.459,1.025 1.025,1.025" style="fill:#b3b3b3;fill-rule:nonzero;"/></g><path d="M265.963,315.122l-0.96,34.271c-0.075,2.662 -3.696,4.797 -8.137,4.797l-112.207,-0c-4.495,-0 -8.138,-2.184 -8.138,-4.879l-0,-32.075c-0,-2.633 3.485,-4.791 7.875,-4.876l113.167,-2.196c4.649,-0.09 8.478,2.17 8.4,4.958" style="fill:#ccc;fill-rule:nonzero;"/><path d="M256.675,318.462l-2.435,31.515c-0.093,1.21 -1.776,2.156 -3.797,2.135l-102.175,-1.079c-2.037,-0.021 -3.669,-1.017 -3.669,-2.239l0,-27.331c0,-1.193 1.562,-2.177 3.551,-2.236l104.609,-3.105c2.202,-0.066 4.018,1.02 3.916,2.34" style="fill:#f2f2f2;fill-rule:nonzero;"/><g opacity="0.52"><path d="M248.527,321.417l-0,2.27c-0,0.8 -1.094,1.446 -2.429,1.433l-88.127,-0.863c-1.304,-0.012 -2.35,-0.65 -2.35,-1.432c-0,-0.776 1.031,-1.411 2.326,-1.432l88.127,-1.408c1.344,-0.022 2.453,0.626 2.453,1.432" style="fill:#b3b3b3;fill-rule:nonzero;"/></g><g opacity="0.52"><path d="M247.211,329.992l0,2.083c0,0.811 -1.121,1.46 -2.472,1.432l-83.937,-1.753c-1.286,-0.027 -2.306,-0.66 -2.306,-1.432l0,-0.649c0,-0.795 1.079,-1.438 2.405,-1.433l83.936,0.32c1.314,0.005 2.374,0.645 2.374,1.432" style="fill:#b3b3b3;fill-rule:nonzero;"/></g></g><g id="Livello-3" serif:id="Livello 3"><path d="M424.424,364.237c2.955,0.255 8.082,0.67 12.124,0.848c2.43,0.107 3.829,-0.131 4.635,-0.454c-0.002,0.091 -0.004,0.177 -0.008,0.257c-0.019,0.425 -0.365,0.765 -0.794,0.789c-7.638,0.426 -13.712,0.148 -15.875,0.016c-0.447,-0.027 -0.714,-0.513 -0.485,-0.894c0.114,-0.191 0.253,-0.378 0.403,-0.562" style="fill:#313131;fill-rule:nonzero;"/><path d="M436.548,365.085c-4.042,-0.178 -9.169,-0.593 -12.124,-0.848c2.905,-3.564 12.124,-5.966 12.124,-5.966l2.604,0c1.791,2.582 2.05,5.04 2.031,6.36c-0.806,0.323 -2.205,0.561 -4.635,0.454" style="fill:#101010;fill-rule:nonzero;"/><path d="M439.59,354.02l-0.243,4.822c-0.027,0.522 -0.418,0.961 -0.94,1.036c-0.52,0.074 -1.218,0.084 -1.956,-0.162c-0.455,-0.152 -0.793,-0.535 -0.876,-1.002l-0.842,-4.694l4.857,0Z" style="fill:#ccc;fill-rule:nonzero;"/><path d="M473.411,365.049c1.281,-0.179 1.86,-0.845 2.103,-1.556c0.002,0.006 0.004,0.013 0.005,0.019c0.189,0.751 -0.248,1.528 -1.122,1.898c-1.056,0.447 -2.21,0.524 -3.107,0.487c-0.961,-0.04 -1.844,-0.438 -2.329,-1.075l-0.007,-0.009c0.965,0.477 2.32,0.534 4.457,0.236" style="fill:#101010;fill-rule:nonzero;"/><path d="M467.37,353.99l2.147,-0c3.271,-0.067 5.325,6.831 5.997,9.503c-0.242,0.711 -0.822,1.377 -2.103,1.556c-2.137,0.298 -3.492,0.241 -4.457,-0.236c-1.767,-2.326 -2.643,-5.731 -3.064,-7.719c-0.479,-2.26 1.48,-3.104 1.48,-3.104" style="fill:#101010;fill-rule:nonzero;"/><path d="M469.241,349.514l1.193,4.743c0.146,0.581 -0.133,1.182 -0.67,1.458c-0.667,0.343 -1.606,0.702 -2.469,0.598c-0.406,-0.049 -0.743,-0.335 -0.878,-0.717l-1.75,-4.99l4.574,-1.092Z" style="fill:#ccc;fill-rule:nonzero;"/><path d="M470.664,350.885c-1.484,1.316 -6.309,1.489 -6.309,1.489c-17.382,-41.717 -24.492,-47.643 -24.492,-47.643c2.51,15.746 0.405,50.605 0.405,50.605c-2.868,1.266 -6.566,0 -6.566,0c-0.233,-25.778 -4.195,-48.259 -8.877,-65.983c11.748,-0.264 17.996,-4.284 20.036,-5.897c9.792,15.787 25.803,67.429 25.803,67.429" style="fill:#313131;fill-rule:nonzero;"/><path d="M441.877,235.481c2.224,11.091 1.427,30.943 0.903,39.997c-0.147,2.545 1.63,6.074 3.066,8.481c0.225,0.377 0.086,0.86 -0.305,1.061c-2.404,1.236 -10.549,5.066 -19.989,5.542c-0.629,0.032 -1.191,-0.397 -1.354,-1.006c-7.002,-26.145 -15.135,-42.852 -15.135,-42.852c8.979,-14.339 32.814,-11.223 32.814,-11.223" style="fill:#c5243e;fill-rule:nonzero;"/><path d="M438.677,303.743c0.099,0 0.199,-0.027 0.289,-0.081c0.263,-0.161 0.346,-0.503 0.186,-0.765c-0.093,-0.154 -2.341,-3.788 -6.891,-5.983c-0.277,-0.132 -0.61,-0.018 -0.744,0.259c-0.133,0.277 -0.017,0.61 0.26,0.744c4.241,2.046 6.403,5.525 6.425,5.559c0.104,0.172 0.287,0.267 0.475,0.267" style="fill:#101010;fill-rule:nonzero;"/><path d="M455.825,267.313c-0.715,5.167 -2.825,10.803 -7.047,16.789l-1.604,-1.308c0,-0 1.852,-7.516 0.799,-16.046c2.604,-0.508 5.68,0.016 7.852,0.565" style="fill:#c5243e;fill-rule:nonzero;"/><path d="M439.394,249.166l2.483,-13.685c0,-0 16.594,12.684 13.948,31.832c-2.172,-0.55 -5.248,-1.073 -7.852,-0.565c-0.758,-6.145 -3.024,-12.815 -8.579,-17.582" style="fill:#c5243e;fill-rule:nonzero;"/><path d="M409.063,246.704l6.405,13.795c-1.036,8.328 -5.51,11.929 -10.334,13.311c-0.301,-3.796 -1.26,-6.863 -2.151,-8.984c6.164,-6.364 6.08,-18.122 6.08,-18.122" style="fill:#c5243e;fill-rule:nonzero;"/><path d="M402.983,264.826c0.891,2.121 1.85,5.188 2.151,8.984c-12.87,4.993 -16.275,-4.691 -16.275,-4.691l2.379,-0.42c5.371,0.566 9.123,-1.166 11.745,-3.873" style="fill:#c5243e;fill-rule:nonzero;"/><path d="M414.964,229.674l3.092,11.367c0.348,1.277 1.729,1.963 2.958,1.472c1.326,-0.531 3.008,-1.254 4.457,-2.036c1.546,-0.835 2.03,-2.824 1.051,-4.283l-6.429,-9.586l-5.129,3.066Z" style="fill:#ccc;fill-rule:nonzero;"/><path d="M382.96,261.512l79.238,28.839c3.323,1.21 4.911,4.994 3.447,8.213l-0.24,0.529c-1.296,2.848 -4.662,4.097 -7.502,2.784l-76.939,-35.593l1.996,-4.772Z" style="fill:#101010;fill-rule:nonzero;"/><g opacity="0.39"><path d="M307.424,244.164c0,-21.199 17.527,-38.409 39.115,-38.409c21.589,-0 39.116,17.21 39.116,38.409c-0,21.199 -17.527,38.41 -39.116,38.41c-21.588,0 -39.115,-17.211 -39.115,-38.41Z" style="fill:url(#_Linear1);"/></g><path d="M309.408,244.164c0,-20.137 16.624,-36.461 37.131,-36.461c20.507,-0 37.132,16.324 37.132,36.461c-0,20.137 -16.625,36.461 -37.132,36.461c-20.507,0 -37.131,-16.324 -37.131,-36.461m-6.394,0c0,23.605 19.487,42.74 43.525,42.74c24.038,-0 43.525,-19.135 43.525,-42.74c0,-23.604 -19.487,-42.739 -43.525,-42.739c-24.038,-0 -43.525,19.135 -43.525,42.739" style="fill:#101010;fill-rule:nonzero;"/><path d="M386.456,237.341c-0.06,0 -0.113,-0.042 -0.124,-0.103c-0.487,-2.719 -1.269,-5.394 -2.323,-7.951c-2.984,-7.24 -8.041,-13.413 -14.623,-17.851c-6.739,-4.545 -14.64,-6.947 -22.847,-6.947c-7.718,-0 -15.222,2.144 -21.699,6.201c-0.059,0.036 -0.137,0.019 -0.174,-0.04c-0.036,-0.059 -0.019,-0.137 0.04,-0.174c6.518,-4.081 14.067,-6.239 21.833,-6.239c8.258,0 16.207,2.417 22.988,6.99c6.623,4.466 11.712,10.678 14.715,17.964c1.061,2.573 1.847,5.266 2.338,8.002c0.012,0.068 -0.033,0.134 -0.101,0.146c-0.008,0.002 -0.015,0.002 -0.023,0.002m0.299,11.951c-0.005,-0 -0.011,-0 -0.016,-0.001c-0.069,-0.009 -0.118,-0.072 -0.109,-0.141c0.127,-1 0.218,-2.02 0.268,-3.032c0.003,-0.069 0.057,-0.13 0.132,-0.119c0.069,0.003 0.123,0.062 0.119,0.131c-0.05,1.019 -0.141,2.046 -0.269,3.052c-0.008,0.064 -0.062,0.11 -0.125,0.11" style="fill:#fff;fill-rule:nonzero;"/><path d="M447.836,282.566l-7.491,-0.611l-3.244,2.991c-0,-0 0.767,1.061 3.167,0.451c2.399,-0.61 5.686,-0.759 5.686,-0.759c-0,-0 3.312,1.493 3.353,-1.301l-1.471,-0.771Z" style="fill:#ccc;fill-rule:nonzero;"/><path d="M389.813,270.891c-0.648,0.506 -2.867,-0.551 -4.225,-1.281c-0.662,-0.356 -0.983,-1.13 -0.756,-1.847c0.327,-1.031 0.872,-2.361 1.543,-2.528c1.113,-0.279 6.107,3.57 3.438,5.656" style="fill:#ccc;fill-rule:nonzero;"/><path d="M460.634,300.602c-0.052,-0 -0.101,-0.033 -0.119,-0.085c-0.022,-0.066 0.012,-0.137 0.078,-0.16c2.307,-0.798 3.516,-2.099 3.592,-3.868c0.078,-1.788 -1.051,-3.449 -2.808,-4.134l-9.513,-3.71c-0.065,-0.025 -0.097,-0.098 -0.072,-0.163c0.025,-0.065 0.098,-0.097 0.163,-0.071l9.514,3.71c1.857,0.724 3.05,2.484 2.968,4.379c-0.082,1.882 -1.347,3.26 -3.762,4.095c-0.013,0.004 -0.027,0.007 -0.041,0.007" style="fill:#91b3fa;fill-rule:nonzero;"/><path d="M448.978,287.511c-0.016,-0 -0.031,-0.003 -0.046,-0.009l-1.233,-0.481c-0.065,-0.025 -0.097,-0.098 -0.072,-0.163c0.026,-0.065 0.099,-0.097 0.163,-0.071l1.234,0.48c0.064,0.026 0.096,0.099 0.071,0.163c-0.019,0.05 -0.067,0.081 -0.117,0.081" style="fill:#91b3fa;fill-rule:nonzero;"/><path d="M414.296,218.514c-0,-0 -2.56,5.879 -2.731,8.965c-0.173,3.087 -0.837,5.089 2.731,5.71c3.568,0.622 6.574,-1.156 8.203,-4.23c-0,0 2.551,-4.737 1.979,-6.676c-0.573,-1.94 -10.182,-3.769 -10.182,-3.769" style="fill:#ccc;fill-rule:nonzero;"/><path d="M422.241,226.749l-1.413,0c0,0 1.859,-3.812 0.226,-4.482c-1.633,-0.67 -8.102,-1.989 -9.498,-4.285c-1.346,-2.212 -0.146,-5.071 1.65,-5.87c0.113,-0.051 0.247,0.002 0.305,0.112l0.149,0.282c0.102,0.193 0.387,0.163 0.447,-0.046c0.058,-0.199 0.325,-0.242 0.435,-0.067c0.427,0.687 1.584,1.803 4.687,2.376c4.402,0.812 7.313,2.594 7.384,5.637c0.005,0.193 0.211,0.299 0.376,0.199c0.325,-0.199 0.845,-0.291 1.54,0.293c1.209,1.017 0.714,3.653 -1.936,5.823c-0.126,0.102 -0.125,0.299 0.012,0.388c0.48,0.313 1.196,1.057 -0.66,2.049c-1.898,1.015 -3.021,0.904 -3.445,0.796c-0.114,-0.03 -0.191,-0.134 -0.184,-0.251l0.167,-2.697c0.008,-0.139 -0.103,-0.257 -0.242,-0.257Z" style="fill:#101010;fill-rule:nonzero;"/><path d="M421.168,227.313c0,0 0.977,-3.756 2.661,-2.703c1.683,1.054 -0.874,4.208 -2.228,4.349l-0.433,-1.646Z" style="fill:#ccc;fill-rule:nonzero;"/></g></g><defs><linearGradient id="_Linear1" x1="0" y1="0" x2="1" y2="0" gradientUnits="userSpaceOnUse" gradientTransform="matrix(-78.2307,-0,-0,78.2307,385.655,244.164)"><stop offset="0" style="stop-color:#c5243e;stop-opacity:1"/><stop offset="1" style="stop-color:#c5243e;stop-opacity:1"/></linearGradient></defs></svg>